<?xml version="1.0" encoding="UTF-8"?>
<svg width="274px" height="351px" viewBox="0 0 274 351" version="1.1" xmlns="http://www.w3.org/2000/svg" xmlns:xlink="http://www.w3.org/1999/xlink">
    <title>Group 18</title>
    <defs>
        <rect id="path-1" x="0" y="4.54747351e-13" width="274" height="351"></rect>
        <polygon id="path-3" points="0 0 78.414 0 78.414 45.6249 0 45.6249"></polygon>
    </defs>
    <g id="Anasayfa" stroke="none" stroke-width="1" fill="none" fill-rule="evenodd">
        <g id="Group-18">
            <mask id="mask-2" fill="white">
                <use xlink:href="#path-1"></use>
            </mask>
            <g id="Mask"></g>
            <g mask="url(#mask-2)">
                <g transform="translate(-68.000000, -10.000000)">
                    <path d="M123.9125,48.7723 C128.2465,61.1043 149.4635,68.6003 158.6525,69.9463 C167.8395,71.2973 169.4635,79.4373 169.4635,79.4373 C168.9225,49.3013 123.9125,48.7723 123.9125,48.7723" id="Fill-1" fill="#CAD7E5"></path>
                    <path d="M126.3986,104.703 C119.1316,99.767 100.3026,91.632 88.4246,95.798 L51.2066,81.463 L50.4876,83.33 L86.8956,97.352 C91.7666,101.458 121.7156,125.179 140.8786,105.02 C140.8786,105.02 134.1346,109.959 126.3986,104.703" id="Fill-3" fill="#CAD7E5"></path>
                    <path d="M342.385,51.2312 C314.376,59.7022 263.635,-6.0128 244.237,42.3122 C258.859,17.4622 317.732,70.2762 342.385,51.2312" id="Fill-5" fill="#CAD7E5"></path>
                    <path d="M243.5453,44.8131 C239.8303,97.3181 316.2433,63.6451 334.2083,86.4161 C321.2213,56.3021 247.6983,74.6411 243.5453,44.8131" id="Fill-7" fill="#CAD7E5"></path>
                    <path d="M339.607,64.6796 C323.663,66.8376 264.785,26.4876 244.891,43.5396 C243.811,43.3356 242.72,43.1326 241.606,42.9366 C238.193,42.3366 234.63,41.7456 230.929,41.2216 C227.228,40.6916 223.392,40.2216 219.439,39.8106 C211.534,38.9936 203.162,38.4536 194.489,38.2866 C190.329,38.2116 186.097,38.2316 181.821,38.3426 C197.603,37.5556 224.355,32.5466 227.361,7.8976 C227.361,7.8976 224.474,17.2316 213.551,17.6896 C202.629,18.1486 176.877,24.3376 170.305,38.2436 C170.305,38.2436 173.689,38.5546 178.81,38.4486 C175.151,38.5816 171.468,38.7666 167.757,39.0446 C163.214,39.3856 158.642,39.8356 154.065,40.3996 C149.489,40.9656 144.91,41.6506 140.347,42.4406 C131.224,44.0196 122.178,46.0386 113.38,48.4196 C104.579,50.7926 96.037,53.5576 87.881,56.5276 C79.724,59.4926 71.967,62.7116 64.712,65.9626 C57.498,69.2026 50.543,71.9296 43.996,74.0396 C37.456,76.1606 31.304,77.5986 25.783,78.3116 C24.403,78.4866 23.062,78.6086 21.765,78.6866 C20.469,78.7706 19.218,78.8066 18.015,78.7976 C15.612,78.7706 13.409,78.5596 11.446,78.2096 C7.513,77.5106 4.593,76.2096 2.742,75.1266 C2.505,74.9986 2.291,74.8636 2.09,74.7366 C1.89,74.6086 1.697,74.4976 1.528,74.3796 C1.19,74.1446 0.9,73.9546 0.678,73.7856 C0.231,73.4506 0,73.2766 0,73.2766 C0,73.2766 0.215,73.4696 0.631,73.8446 C0.839,74.0326 1.116,74.2426 1.436,74.5066 C1.596,74.6376 1.781,74.7646 1.972,74.9096 C2.165,75.0526 2.371,75.2066 2.599,75.3536 C3.497,75.9696 4.66,76.6556 6.106,77.3096 C7.549,77.9696 9.281,78.5736 11.273,79.0426 C15.256,79.9916 20.283,80.3156 25.943,79.7626 C31.61,79.2396 37.897,77.8726 44.561,75.8346 C51.227,73.7866 58.252,71.0036 65.506,67.7326 C72.724,64.4856 80.427,61.2756 88.535,58.3136 C96.636,55.3406 105.131,52.6046 113.864,50.1926 C122.598,47.7846 131.581,45.7366 140.645,44.1236 C145.175,43.3166 149.725,42.6196 154.273,42.0276 C158.818,41.4326 163.362,40.9496 167.878,40.5766 C176.911,39.8286 185.836,39.5296 194.471,39.6136 C203.106,39.6876 211.45,40.1366 219.336,40.8666 C223.28,41.2326 227.107,41.6696 230.805,42.1356 C234.503,42.6026 238.065,43.1396 241.479,43.6886 C242.697,43.8836 243.889,44.0876 245.067,44.2946 C256.98,71.3346 319.637,57.3486 336.99,76.8856 C333.712,72.2596 326.962,67.0966 321.643,64.2696 C324.534,64.4326 333.463,65.7646 339.607,64.6796" id="Fill-9" fill="#CAD7E5"></path>
                    <g id="Group-13" stroke-width="1" fill="none" transform="translate(58.883800, 0.000000)">
                        <mask id="mask-4" fill="white">
                            <use xlink:href="#path-3"></use>
                        </mask>
                        <g id="Clip-12"></g>
                        <path d="M33.399,28.3049 C42.91,28.1959 76.51,25.9679 78.414,-0.0001 C78.414,-0.0001 76.332,8.0959 67.017,8.9369 C58.073,9.7459 37.673,15.6349 31.597,26.8619 C14.506,33.6489 0.17,43.8789 0,44.0009 L1.168,45.6249 C1.339,45.5019 16.097,34.9759 33.399,28.3049" id="Fill-11" fill="#CAD7E5" mask="url(#mask-4)"></path>
                    </g>
                    <path d="M140.8786,146.3646 C140.8786,146.3646 135.5976,149.1666 130.6626,144.6516 C126.0306,140.4146 113.5546,132.7286 104.7196,134.4416 C104.5876,134.3216 104.4686,134.1936 104.3346,134.0746 C92.5856,123.6906 74.5996,118.1016 50.8736,117.4626 L50.8196,119.4616 C74.0636,120.0876 91.6226,125.5086 103.0106,135.5736 C117.9136,148.7466 118.5676,171.1456 115.3636,193.2366 C108.8806,195.5306 76.3306,208.3986 83.3386,233.3056 C83.3386,233.3056 82.5836,225.4366 90.5946,221.6886 C96.9416,218.7196 109.1066,210.1636 114.1756,200.5566 C112.7216,208.6596 110.8956,216.5766 109.2246,223.8236 C108.3756,227.5046 107.5736,230.9816 106.8906,234.1926 C103.7516,248.9526 100.2376,265.5446 97.6476,282.7186 C97.5266,282.5696 97.4096,282.4166 97.2806,282.2726 C74.7736,291.5526 86.9676,342.8406 71.1856,357.1676 C74.8986,354.4736 79.0176,348.9686 81.2576,344.6406 C81.1516,346.9806 80.1516,354.2166 81.0836,359.1776 C79.3036,347.0186 107.8336,303.5736 99.2796,285.3326 C99.4066,284.4596 99.5376,283.5886 99.6696,282.7186 C116.5946,295.7096 76.7346,341.9986 91.9876,361.3066 C84.9756,338.9946 136.3316,298.1026 99.7186,282.3936 C100.6156,276.4996 101.6156,270.6776 102.6786,264.9716 C104.1326,276.7796 109.8046,301.8816 131.7476,302.0826 C131.7476,302.0826 123.9816,300.6076 122.6236,291.8666 C121.3246,283.5096 114.5816,264.7336 103.6976,259.5876 C105.3896,250.8706 107.1736,242.4786 108.8466,234.6086 C109.5256,231.4146 110.3266,227.9456 111.1726,224.2726 C117.0816,198.6506 124.8746,164.8126 111.7826,143.0596 C119.4076,148.8446 130.7926,154.2976 140.8786,146.3646" id="Fill-14" fill="#CAD7E5"></path>
                    <path d="M96.3147,281.2869 C53.8047,278.7409 81.7157,340.2659 63.4507,354.9999 C87.6997,344.2299 72.2197,284.9079 96.3147,281.2869" id="Fill-16" fill="#CAD7E5"></path>
                </g>
            </g>
        </g>
    </g>
</svg>